<svg width="56" height="56" viewBox="0 0 56 56" fill="none" xmlns="http://www.w3.org/2000/svg">
<circle cx="28" cy="28" r="28" fill="#056DB0"/>
<circle cx="28" cy="28" r="22.75" fill="white"/>
<path d="M38.0444 33.1483C37.5877 33.1483 37.2344 32.9991 36.9847 32.7007C36.735 32.3962 36.6102 31.979 36.6102 31.4492C36.6102 30.9193 36.735 30.5052 36.9847 30.2068C37.2344 29.9023 37.5877 29.75 38.0444 29.75C38.5012 29.75 38.8544 29.9023 39.1041 30.2068C39.3538 30.5052 39.4787 30.9193 39.4787 31.4492C39.4787 31.979 39.3538 32.3962 39.1041 32.7007C38.8544 32.9991 38.5012 33.1483 38.0444 33.1483ZM38.0444 32.3535C38.221 32.3535 38.3428 32.2896 38.4098 32.1617C38.4829 32.0338 38.5195 31.8633 38.5195 31.6501V31.2482C38.5195 31.035 38.4829 30.8645 38.4098 30.7366C38.3428 30.6087 38.221 30.5448 38.0444 30.5448C37.8678 30.5448 37.743 30.6087 37.6699 30.7366C37.6029 30.8645 37.5694 31.035 37.5694 31.2482V31.6501C37.5694 31.8633 37.6029 32.0338 37.6699 32.1617C37.743 32.2896 37.8678 32.3535 38.0444 32.3535ZM40.9677 29.8596H42L40.6206 32.6002H39.5883L40.9677 29.8596ZM37.9348 33.4955H38.9671L37.5877 36.236H36.5554L37.9348 33.4955ZM40.5201 36.3457C40.0633 36.3457 39.7101 36.1964 39.4604 35.898C39.2107 35.5935 39.0859 35.1763 39.0859 34.6465C39.0859 34.1167 39.2107 33.7025 39.4604 33.4041C39.7101 33.0996 40.0633 32.9473 40.5201 32.9473C40.9769 32.9473 41.3301 33.0996 41.5798 33.4041C41.8295 33.7025 41.9543 34.1167 41.9543 34.6465C41.9543 35.1763 41.8295 35.5935 41.5798 35.898C41.3301 36.1964 40.9769 36.3457 40.5201 36.3457ZM40.5201 35.5509C40.6967 35.5509 40.8185 35.4869 40.8855 35.359C40.9586 35.2312 40.9951 35.0606 40.9951 34.8475V34.4455C40.9951 34.2324 40.9586 34.0618 40.8855 33.9339C40.8185 33.8061 40.6967 33.7421 40.5201 33.7421C40.3435 33.7421 40.2186 33.8061 40.1455 33.9339C40.0785 34.0618 40.0451 34.2324 40.0451 34.4455V34.8475C40.0451 35.0606 40.0785 35.2312 40.1455 35.359C40.2186 35.4869 40.3435 35.5509 40.5201 35.5509Z" fill="#2C2C2C"/>
<path d="M37.1071 32.2805C37.1071 32.7311 37.037 33.1544 36.897 33.5503C36.7569 33.9461 36.5742 34.3146 36.3488 34.6556C36.1296 34.9906 35.8799 35.2921 35.5998 35.56C35.3257 35.828 35.0516 36.0533 34.7776 36.236H32.8866C33.2824 35.962 33.6357 35.7001 33.9463 35.4504C34.263 35.1946 34.537 34.9419 34.7684 34.6922C35.006 34.4364 35.1978 34.1745 35.344 33.9065C35.4962 33.6386 35.6058 33.3493 35.6728 33.0387L35.5906 33.0113C35.5358 33.1331 35.4658 33.2518 35.3805 33.3676C35.3013 33.4833 35.2039 33.5868 35.0882 33.6782C34.9785 33.7634 34.8446 33.8335 34.6862 33.8883C34.534 33.9431 34.3543 33.9705 34.1472 33.9705C33.8793 33.9705 33.6296 33.9248 33.3982 33.8335C33.1667 33.736 32.9657 33.602 32.7952 33.4315C32.6308 33.2549 32.4999 33.0448 32.4024 32.8012C32.305 32.5576 32.2562 32.2835 32.2562 31.979C32.2562 31.6562 32.3141 31.3578 32.4298 31.0837C32.5455 30.8097 32.7069 30.5752 32.914 30.3803C33.1271 30.1794 33.3829 30.0241 33.6813 29.9144C33.9798 29.8048 34.3117 29.75 34.6771 29.75C35.0608 29.75 35.4018 29.8109 35.7002 29.9327C36.0047 30.0484 36.2605 30.2189 36.4676 30.4443C36.6747 30.6635 36.833 30.9284 36.9426 31.239C37.0523 31.5496 37.1071 31.8968 37.1071 32.2805ZM34.6862 32.9199C34.9968 32.9199 35.2404 32.8377 35.417 32.6733C35.5937 32.5028 35.682 32.2592 35.682 31.9425V31.8146C35.682 31.4979 35.5967 31.2543 35.4262 31.0837C35.2617 30.9071 35.0151 30.8188 34.6862 30.8188C34.3574 30.8188 34.1077 30.9071 33.9371 31.0837C33.7666 31.2543 33.6813 31.4979 33.6813 31.8146V31.9425C33.6813 32.2592 33.7666 32.5028 33.9371 32.6733C34.1137 32.8377 34.3634 32.9199 34.6862 32.9199Z" fill="#2C2C2C"/>
<path d="M32.543 32.2805C32.543 32.7311 32.473 33.1544 32.3329 33.5503C32.1928 33.9461 32.0101 34.3146 31.7848 34.6556C31.5655 34.9906 31.3158 35.2921 31.0357 35.56C30.7616 35.828 30.4876 36.0533 30.2135 36.236H28.3225C28.7184 35.962 29.0716 35.7001 29.3822 35.4504C29.6989 35.1946 29.973 34.9419 30.2044 34.6922C30.4419 34.4364 30.6337 34.1745 30.7799 33.9065C30.9322 33.6386 31.0418 33.3493 31.1088 33.0387L31.0266 33.0113C30.9717 33.1331 30.9017 33.2518 30.8164 33.3676C30.7373 33.4833 30.6398 33.5868 30.5241 33.6782C30.4145 33.7634 30.2805 33.8335 30.1222 33.8883C29.9699 33.9431 29.7902 33.9705 29.5832 33.9705C29.3152 33.9705 29.0655 33.9248 28.8341 33.8335C28.6027 33.736 28.4017 33.602 28.2312 33.4315C28.0667 33.2549 27.9358 33.0448 27.8383 32.8012C27.7409 32.5576 27.6922 32.2835 27.6922 31.979C27.6922 31.6562 27.75 31.3578 27.8658 31.0837C27.9815 30.8097 28.1429 30.5752 28.3499 30.3803C28.5631 30.1794 28.8189 30.0241 29.1173 29.9144C29.4157 29.8048 29.7476 29.75 30.113 29.75C30.4967 29.75 30.8378 29.8109 31.1362 29.9327C31.4407 30.0484 31.6965 30.2189 31.9035 30.4443C32.1106 30.6635 32.2689 30.9284 32.3786 31.239C32.4882 31.5496 32.543 31.8968 32.543 32.2805ZM30.1222 32.9199C30.4328 32.9199 30.6764 32.8377 30.853 32.6733C31.0296 32.5028 31.1179 32.2592 31.1179 31.9425V31.8146C31.1179 31.4979 31.0326 31.2543 30.8621 31.0837C30.6977 30.9071 30.451 30.8188 30.1222 30.8188C29.7933 30.8188 29.5436 30.9071 29.3731 31.0837C29.2025 31.2543 29.1173 31.4979 29.1173 31.8146V31.9425C29.1173 32.2592 29.2025 32.5028 29.3731 32.6733C29.5497 32.8377 29.7994 32.9199 30.1222 32.9199Z" fill="#2C2C2C"/>
<path d="M25.5855 36.3457C25.2445 36.3457 24.9978 36.2726 24.8456 36.1264C24.6994 35.9742 24.6263 35.7945 24.6263 35.5874V35.2677C24.6263 35.0606 24.6994 34.884 24.8456 34.7379C24.9978 34.5856 25.2445 34.5095 25.5855 34.5095C25.9266 34.5095 26.1702 34.5856 26.3163 34.7379C26.4686 34.884 26.5447 35.0606 26.5447 35.2677V35.5874C26.5447 35.7945 26.4686 35.9742 26.3163 36.1264C26.1702 36.2726 25.9266 36.3457 25.5855 36.3457Z" fill="#2C2C2C"/>
<path d="M23.4149 32.2805C23.4149 32.7311 23.3448 33.1544 23.2048 33.5503C23.0647 33.9461 22.882 34.3146 22.6567 34.6556C22.4374 34.9906 22.1877 35.2921 21.9076 35.56C21.6335 35.828 21.3595 36.0533 21.0854 36.236H19.1944C19.5903 35.962 19.9435 35.7001 20.2541 35.4504C20.5708 35.1946 20.8448 34.9419 21.0763 34.6922C21.3138 34.4364 21.5056 34.1745 21.6518 33.9065C21.804 33.6386 21.9137 33.3493 21.9806 33.0387L21.8984 33.0113C21.8436 33.1331 21.7736 33.2518 21.6883 33.3676C21.6091 33.4833 21.5117 33.5868 21.396 33.6782C21.2864 33.7634 21.1524 33.8335 20.994 33.8883C20.8418 33.9431 20.6621 33.9705 20.4551 33.9705C20.1871 33.9705 19.9374 33.9248 19.706 33.8335C19.4745 33.736 19.2736 33.602 19.103 33.4315C18.9386 33.2549 18.8077 33.0448 18.7102 32.8012C18.6128 32.5576 18.5641 32.2835 18.5641 31.979C18.5641 31.6562 18.6219 31.3578 18.7376 31.0837C18.8533 30.8097 19.0147 30.5752 19.2218 30.3803C19.435 30.1794 19.6907 30.0241 19.9892 29.9144C20.2876 29.8048 20.6195 29.75 20.9849 29.75C21.3686 29.75 21.7096 29.8109 22.0081 29.9327C22.3126 30.0484 22.5684 30.2189 22.7754 30.4443C22.9825 30.6635 23.1408 30.9284 23.2505 31.239C23.3601 31.5496 23.4149 31.8968 23.4149 32.2805ZM20.994 32.9199C21.3046 32.9199 21.5482 32.8377 21.7249 32.6733C21.9015 32.5028 21.9898 32.2592 21.9898 31.9425V31.8146C21.9898 31.4979 21.9045 31.2543 21.734 31.0837C21.5696 30.9071 21.3229 30.8188 20.994 30.8188C20.6652 30.8188 20.4155 30.9071 20.2449 31.0837C20.0744 31.2543 19.9892 31.4979 19.9892 31.8146V31.9425C19.9892 32.2592 20.0744 32.5028 20.2449 32.6733C20.4216 32.8377 20.6713 32.9199 20.994 32.9199Z" fill="#2C2C2C"/>
<path d="M18.8508 32.2805C18.8508 32.7311 18.7808 33.1544 18.6407 33.5503C18.5006 33.9461 18.3179 34.3146 18.0926 34.6556C17.8733 34.9906 17.6237 35.2921 17.3435 35.56C17.0694 35.828 16.7954 36.0533 16.5213 36.236H14.6303C15.0262 35.962 15.3794 35.7001 15.69 35.4504C16.0067 35.1946 16.2808 34.9419 16.5122 34.6922C16.7497 34.4364 16.9416 34.1745 17.0877 33.9065C17.24 33.6386 17.3496 33.3493 17.4166 33.0387L17.3344 33.0113C17.2796 33.1331 17.2095 33.2518 17.1243 33.3676C17.0451 33.4833 16.9476 33.5868 16.8319 33.6782C16.7223 33.7634 16.5883 33.8335 16.43 33.8883C16.2777 33.9431 16.0981 33.9705 15.891 33.9705C15.623 33.9705 15.3733 33.9248 15.1419 33.8335C14.9105 33.736 14.7095 33.602 14.539 33.4315C14.3745 33.2549 14.2436 33.0448 14.1462 32.8012C14.0487 32.5576 14 32.2835 14 31.979C14 31.6562 14.0579 31.3578 14.1736 31.0837C14.2893 30.8097 14.4507 30.5752 14.6577 30.3803C14.8709 30.1794 15.1267 30.0241 15.4251 29.9144C15.7235 29.8048 16.0554 29.75 16.4208 29.75C16.8045 29.75 17.1456 29.8109 17.444 29.9327C17.7485 30.0484 18.0043 30.2189 18.2114 30.4443C18.4184 30.6635 18.5768 30.9284 18.6864 31.239C18.796 31.5496 18.8508 31.8968 18.8508 32.2805ZM16.43 32.9199C16.7406 32.9199 16.9842 32.8377 17.1608 32.6733C17.3374 32.5028 17.4257 32.2592 17.4257 31.9425V31.8146C17.4257 31.4979 17.3405 31.2543 17.1699 31.0837C17.0055 30.9071 16.7588 30.8188 16.43 30.8188C16.1011 30.8188 15.8514 30.9071 15.6809 31.0837C15.5104 31.2543 15.4251 31.4979 15.4251 31.8146V31.9425C15.4251 32.2592 15.5104 32.5028 15.6809 32.6733C15.8575 32.8377 16.1072 32.9199 16.43 32.9199Z" fill="#2C2C2C"/>
<path d="M36.9113 43.386V38.5H40.0333V39.361H37.9613V40.481H39.9633V41.342H37.9613V42.525H40.0333V43.386H36.9113Z" fill="#2C2C2C"/>
<path d="M35.1711 41.209L35.2271 39.844H35.1641L34.2541 42.357L33.3441 39.844H33.2811L33.3371 41.209V43.386H32.4271V38.5H33.6661L34.2681 40.145H34.3241L34.9261 38.5H36.0811V43.386H35.1711V41.209Z" fill="#2C2C2C"/>
<path d="M28.4818 43.386V42.609H29.5318V39.277H28.4818V38.5H31.6318V39.277H30.5818V42.609H31.6318V43.386H28.4818Z" fill="#2C2C2C"/>
<path d="M26.3845 39.361V43.386H25.3345V39.361H23.9275V38.5H27.7915V39.361H26.3845Z" fill="#2C2C2C"/>
<path d="M20.0943 43.386V38.5H21.9843C22.2223 38.5 22.4346 38.5373 22.6213 38.612C22.8079 38.682 22.9643 38.7847 23.0903 38.92C23.2209 39.0553 23.3189 39.2187 23.3843 39.41C23.4496 39.6013 23.4823 39.816 23.4823 40.054C23.4823 40.292 23.4496 40.5067 23.3843 40.698C23.3189 40.8893 23.2209 41.0527 23.0903 41.188C22.9643 41.3233 22.8079 41.4283 22.6213 41.503C22.4346 41.573 22.2223 41.608 21.9843 41.608H21.1513V43.386H20.0943ZM21.1513 40.761H21.7183C21.9656 40.761 22.1359 40.7143 22.2293 40.621C22.3273 40.5277 22.3763 40.3737 22.3763 40.159V39.949C22.3763 39.7343 22.3273 39.5803 22.2293 39.487C22.1359 39.3937 21.9656 39.347 21.7183 39.347H21.1513V40.761Z" fill="#2C2C2C"/>
<path d="M16.8 38.5V41.594C16.8 41.748 16.8047 41.8903 16.814 42.021C16.828 42.147 16.856 42.2543 16.898 42.343C16.9447 42.4317 17.0123 42.5017 17.101 42.553C17.1897 42.5997 17.311 42.623 17.465 42.623C17.619 42.623 17.7403 42.5997 17.829 42.553C17.9177 42.5017 17.983 42.4317 18.025 42.343C18.0717 42.2543 18.0997 42.147 18.109 42.021C18.123 41.8903 18.13 41.748 18.13 41.594V38.5H19.18V41.454C19.18 41.79 19.1567 42.084 19.11 42.336C19.068 42.588 18.984 42.798 18.858 42.966C18.732 43.134 18.557 43.26 18.333 43.344C18.109 43.428 17.8197 43.47 17.465 43.47C17.1103 43.47 16.821 43.428 16.597 43.344C16.373 43.26 16.198 43.134 16.072 42.966C15.946 42.798 15.8597 42.588 15.813 42.336C15.771 42.084 15.75 41.79 15.75 41.454V38.5H16.8Z" fill="#2C2C2C"/>
<path d="M17.5 19.6514C17.5 19.6514 23.3823 24.1629 23.9666 27.9998C23.9666 27.9998 29.9298 17.6841 38.5 16.6248C38.5 16.6248 35.018 12.2166 35.875 9.39783C35.875 9.39783 33.4598 8.83538 24.5 21.8748L21.875 16.6248L17.5 19.6514Z" fill="#0D7E4E"/>
</svg>
