<svg width="191" height="32" viewBox="0 0 191 32" fill="none" xmlns="http://www.w3.org/2000/svg">
<path d="M0 3.45562C0 1.54713 1.54713 0 3.45562 0H28.5444C30.4529 0 32 1.54713 32 3.45562V28.5444C32 30.4529 30.4529 32 28.5444 32H3.45562C1.54713 32 0 30.4529 0 28.5444V3.45562Z" fill="#0067FF"/>
<path d="M0 3.45562C0 1.54713 1.54713 0 3.45562 0H28.5444C30.4529 0 32 1.54713 32 3.45562V28.5444C32 30.4529 30.4529 32 28.5444 32H3.45562C1.54713 32 0 30.4529 0 28.5444V3.45562Z" fill="url(#paint0_linear_3844_4835)"/>
<path d="M22.9343 20.4824L28.4796 25.5118L25.4549 28.4799L20.3086 23.0589L21.1698 22.0489L20.5397 21.4306L20.3506 21.6161L19.4684 20.7504L19.8465 20.3794L20.4136 19.8228L20.6063 19.6305L21.5059 20.4824L21.2959 20.6885L21.905 21.2863" fill="white"/>
<path fill-rule="evenodd" clip-rule="evenodd" d="M5.21616 13.567C5.20513 18.143 8.97616 21.8614 13.6394 21.8722C18.3026 21.883 22.0916 18.1826 22.1029 13.6066C22.1139 9.03067 18.3429 5.31258 13.6797 5.30145C13.6728 5.30145 13.6662 5.30145 13.6595 5.30145C9.00736 5.29063 5.22719 8.98243 5.21616 13.5472C5.21616 13.5537 5.21616 13.5605 5.21616 13.567ZM4.16057 13.5668C4.11235 8.41909 8.32584 4.20775 13.5714 4.16044C18.8173 4.11315 23.109 8.24777 23.1572 13.3952C23.2054 18.5429 18.9923 22.7543 13.7463 22.8016C13.7174 22.8019 13.6884 22.8022 13.6594 22.8022C8.44434 22.8096 4.20122 18.6843 4.16057 13.5668Z" fill="white"/>
<path d="M13.6727 6.86768L8.32422 9.93749V16.0771L13.6727 19.147L15.3246 20.0925V18.1769L19.009 16.0587V9.91908L13.6727 6.86768ZM13.5745 17.8638L9.34971 15.4079V10.5576L13.5745 12.9828V17.8638ZM9.39884 10.4962L13.6727 8.07105L17.8975 10.4962L13.6727 12.9521L9.39884 10.4962ZM17.8975 15.4079L13.6727 17.8638V13.0073L17.8975 10.5822V15.4079Z" fill="white"/>
<path d="M49.6271 12.5781C49.6271 14.1347 49.0903 15.432 48.0167 16.4697C46.9611 17.4896 45.3418 17.9996 43.1589 17.9996H39.5625V25.8097H37.1201V7.10293H43.1589C45.2702 7.10293 46.8716 7.61287 47.9631 8.63275C49.0724 9.65263 49.6271 10.9677 49.6271 12.5781ZM43.1589 15.9866C44.5187 15.9866 45.5207 15.6914 46.1649 15.1009C46.809 14.5105 47.1311 13.6695 47.1311 12.5781C47.1311 10.2699 45.807 9.11585 43.1589 9.11585H39.5625V15.9866H43.1589Z" fill="#171D27"/>
<path d="M51.7501 18.4021C51.7501 16.8992 52.0543 15.584 52.6626 14.4568C53.271 13.3117 54.103 12.426 55.1586 11.7998C56.2322 11.1735 57.4221 10.8604 58.7282 10.8604C60.0165 10.8604 61.1348 11.1377 62.0831 11.6924C63.0314 12.2471 63.7382 12.9449 64.2034 13.7858V11.1019H66.6726V25.8097H64.2034V23.0721C63.7203 23.931 62.9956 24.6467 62.0294 25.2192C61.0811 25.7739 59.9718 26.0513 58.7014 26.0513C57.3952 26.0513 56.2143 25.7292 55.1586 25.085C54.103 24.4409 53.271 23.5373 52.6626 22.3743C52.0543 21.2113 51.7501 19.8872 51.7501 18.4021ZM64.2034 18.429C64.2034 17.3196 63.9797 16.3534 63.5324 15.5304C63.0851 14.7073 62.4767 14.0811 61.7073 13.6516C60.9559 13.2043 60.1238 12.9807 59.2113 12.9807C58.2988 12.9807 57.4668 13.1954 56.7153 13.6248C55.9638 14.0542 55.3644 14.6805 54.9171 15.5035C54.4698 16.3266 54.2461 17.2928 54.2461 18.4021C54.2461 19.5294 54.4698 20.5135 54.9171 21.3544C55.3644 22.1775 55.9638 22.8127 56.7153 23.26C57.4668 23.6894 58.2988 23.9041 59.2113 23.9041C60.1238 23.9041 60.9559 23.6894 61.7073 23.26C62.4767 22.8127 63.0851 22.1775 63.5324 21.3544C63.9797 20.5135 64.2034 19.5383 64.2034 18.429Z" fill="#171D27"/>
<path d="M73.2422 13.4906C73.6717 12.6497 74.28 11.9966 75.0673 11.5314C75.8725 11.0662 76.8476 10.8335 77.9927 10.8335V13.3564H77.3486C74.611 13.3564 73.2422 14.8415 73.2422 17.8117V25.8097H70.7999V11.1019H73.2422V13.4906Z" fill="#171D27"/>
<path d="M79.8996 18.429C79.8996 16.9081 80.2037 15.584 80.8121 14.4568C81.4204 13.3117 82.2614 12.426 83.3349 11.7998C84.4264 11.1735 85.6699 10.8604 87.0656 10.8604C88.8727 10.8604 90.3578 11.2988 91.5208 12.1755C92.7018 13.0522 93.4801 14.2689 93.8558 15.8256H91.2256C90.9751 14.931 90.4831 14.2242 89.7495 13.7053C89.0338 13.1864 88.1391 12.927 87.0656 12.927C85.6699 12.927 84.5427 13.4101 83.6839 14.3763C82.825 15.3246 82.3956 16.6755 82.3956 18.429C82.3956 20.2004 82.825 21.5691 83.6839 22.5353C84.5427 23.5015 85.6699 23.9846 87.0656 23.9846C88.1391 23.9846 89.0338 23.7341 89.7495 23.2332C90.4652 22.7322 90.9572 22.0165 91.2256 21.086H93.8558C93.4622 22.589 92.6749 23.7968 91.494 24.7093C90.3131 25.6039 88.8369 26.0513 87.0656 26.0513C85.6699 26.0513 84.4264 25.7381 83.3349 25.1119C82.2614 24.4856 81.4204 23.6 80.8121 22.4548C80.2037 21.3097 79.8996 19.9677 79.8996 18.429Z" fill="#171D27"/>
<path d="M110.534 17.8922C110.534 18.3574 110.507 18.8495 110.454 19.3683H98.6982C98.7876 20.8176 99.2797 21.9538 100.174 22.7769C101.087 23.5821 102.187 23.9846 103.476 23.9846C104.531 23.9846 105.408 23.7431 106.106 23.26C106.821 22.759 107.322 22.097 107.609 21.2739H110.239C109.845 22.6874 109.058 23.8415 107.877 24.7361C106.696 25.6129 105.229 26.0513 103.476 26.0513C102.08 26.0513 100.827 25.7381 99.718 25.1119C98.6266 24.4856 97.7677 23.6 97.1415 22.4548C96.5153 21.2918 96.2021 19.9499 96.2021 18.429C96.2021 16.9081 96.5063 15.5751 97.1147 14.43C97.723 13.2848 98.5729 12.4081 99.6644 11.7998C100.774 11.1735 102.044 10.8604 103.476 10.8604C104.871 10.8604 106.106 11.1646 107.179 11.7729C108.253 12.3813 109.076 13.2222 109.648 14.2958C110.239 15.3514 110.534 16.5502 110.534 17.8922ZM108.011 17.3823C108.011 16.4518 107.806 15.6556 107.394 14.9936C106.982 14.3137 106.419 13.8037 105.703 13.4638C105.005 13.1059 104.227 12.927 103.368 12.927C102.134 12.927 101.078 13.3206 100.201 14.1079C99.3423 14.8952 98.8503 15.9866 98.725 17.3823H108.011Z" fill="#171D27"/>
<path d="M116.2 5.94885V25.8097H113.758V5.94885H116.2Z" fill="#171D27"/>
<path d="M132.87 12.5781C132.87 14.1347 132.333 15.432 131.259 16.4697C130.204 17.4896 128.585 17.9996 126.402 17.9996H122.805V25.8097H120.363V7.10293H126.402C128.513 7.10293 130.114 7.61287 131.206 8.63275C132.315 9.65263 132.87 10.9677 132.87 12.5781ZM126.402 15.9866C127.761 15.9866 128.763 15.6914 129.408 15.1009C130.052 14.5105 130.374 13.6695 130.374 12.5781C130.374 10.2699 129.05 9.11585 126.402 9.11585H122.805V15.9866H126.402Z" fill="#171D27"/>
<path d="M134.993 18.4021C134.993 16.8992 135.297 15.584 135.905 14.4568C136.514 13.3117 137.346 12.426 138.401 11.7998C139.475 11.1735 140.665 10.8604 141.971 10.8604C143.259 10.8604 144.378 11.1377 145.326 11.6924C146.274 12.2471 146.981 12.9449 147.446 13.7858V11.1019H149.915V25.8097H147.446V23.0721C146.963 23.931 146.238 24.6467 145.272 25.2192C144.324 25.7739 143.215 26.0513 141.944 26.0513C140.638 26.0513 139.457 25.7292 138.401 25.085C137.346 24.4409 136.514 23.5373 135.905 22.3743C135.297 21.2113 134.993 19.8872 134.993 18.4021ZM147.446 18.429C147.446 17.3196 147.222 16.3534 146.775 15.5304C146.328 14.7073 145.719 14.0811 144.95 13.6516C144.199 13.2043 143.367 12.9807 142.454 12.9807C141.542 12.9807 140.71 13.1954 139.958 13.6248C139.207 14.0542 138.607 14.6805 138.16 15.5035C137.713 16.3266 137.489 17.2928 137.489 18.4021C137.489 19.5294 137.713 20.5135 138.16 21.3544C138.607 22.1775 139.207 22.8127 139.958 23.26C140.71 23.6894 141.542 23.9041 142.454 23.9041C143.367 23.9041 144.199 23.6894 144.95 23.26C145.719 22.8127 146.328 22.1775 146.775 21.3544C147.222 20.5135 147.446 19.5383 147.446 18.429Z" fill="#171D27"/>
<path d="M161.209 10.8335C162.998 10.8335 164.447 11.3793 165.557 12.4707C166.666 13.5443 167.221 15.1009 167.221 17.1407V25.8097H164.805V17.4896C164.805 16.0224 164.438 14.9041 163.705 14.1347C162.971 13.3475 161.969 12.9538 160.699 12.9538C159.41 12.9538 158.382 13.3564 157.612 14.1616C156.861 14.9667 156.485 16.1387 156.485 17.6775V25.8097H154.043V11.1019H156.485V13.1954C156.968 12.4439 157.621 11.8624 158.444 11.4508C159.285 11.0393 160.207 10.8335 161.209 10.8335Z" fill="#171D27"/>
<path d="M184.63 17.8922C184.63 18.3574 184.603 18.8495 184.549 19.3683H172.794C172.883 20.8176 173.375 21.9538 174.27 22.7769C175.182 23.5821 176.283 23.9846 177.571 23.9846C178.627 23.9846 179.503 23.7431 180.201 23.26C180.917 22.759 181.418 22.097 181.704 21.2739H184.334C183.941 22.6874 183.153 23.8415 181.973 24.7361C180.792 25.6129 179.324 26.0513 177.571 26.0513C176.175 26.0513 174.923 25.7381 173.814 25.1119C172.722 24.4856 171.863 23.6 171.237 22.4548C170.611 21.2918 170.298 19.9499 170.298 18.429C170.298 16.9081 170.602 15.5751 171.21 14.43C171.818 13.2848 172.668 12.4081 173.76 11.7998C174.869 11.1735 176.14 10.8604 177.571 10.8604C178.967 10.8604 180.201 11.1646 181.275 11.7729C182.348 12.3813 183.171 13.2222 183.744 14.2958C184.334 15.3514 184.63 16.5502 184.63 17.8922ZM182.107 17.3823C182.107 16.4518 181.901 15.6556 181.489 14.9936C181.078 14.3137 180.514 13.8037 179.799 13.4638C179.101 13.1059 178.322 12.927 177.464 12.927C176.229 12.927 175.173 13.3206 174.297 14.1079C173.438 14.8952 172.946 15.9866 172.82 17.3823H182.107Z" fill="#171D27"/>
<path d="M190.296 5.94885V25.8097H187.853V5.94885H190.296Z" fill="#171D27"/>
<defs>
<linearGradient id="paint0_linear_3844_4835" x1="16" y1="0" x2="16" y2="32" gradientUnits="userSpaceOnUse">
<stop stop-color="white" stop-opacity="0"/>
<stop offset="1" stop-color="white" stop-opacity="0.4"/>
</linearGradient>
</defs>
</svg>
